HIERARCHY
ROOT simHips
{
  OFFSET 95.9864 99.6468 43.4371
  CHANNELS 6 Xposition Yposition Zposition Zrotation Xrotation Yrotation
  JOINT simSpine
  {
    OFFSET -0.000355721 21.3001 -0.016921
    CHANNELS 3 Zrotation Xrotation Yrotation
    JOINT simLeftArm
    {
      OFFSET 13.5181 21.3012 0
      CHANNELS 3 Zrotation Xrotation Yrotation
      JOINT simLeftForeArm
      {
        OFFSET 24.5783 0 0
        CHANNELS 3 Zrotation Xrotation Yrotation
        JOINT simLeftHand
        {
          OFFSET 24.5783 0 0
          CHANNELS 3 Zrotation Xrotation Yrotation
          End Site
          {
            OFFSET 7.32568 1.52588e-05 0.0169305
          }
        }
      }
    }
    JOINT simHead
    {
      OFFSET 0 27.4458 -0.00489235
      CHANNELS 3 Zrotation Xrotation Yrotation
      End Site
      {
        OFFSET 0 0 0
      }
    }
    JOINT simRightArm
    {
      OFFSET -13.5174 21.3012 0
      CHANNELS 3 Zrotation Xrotation Yrotation
      JOINT simRightForeArm
      {
        OFFSET -24.5783 0 0
        CHANNELS 3 Zrotation Xrotation Yrotation
        JOINT simRightHand
        {
          OFFSET -24.5783 0 0
          CHANNELS 3 Zrotation Xrotation Yrotation
          End Site
          {
            OFFSET -7.32568 1.52588e-05 0.0169305
          }
        }
      }
    }
  }
  JOINT simRightUpLeg
  {
    OFFSET -8.44614 -9.41038 0.835684
    CHANNELS 3 Zrotation Xrotation Yrotation
    JOINT simRightLeg
    {
      OFFSET 0 -40.9639 0
      CHANNELS 3 Zrotation Xrotation Yrotation
      JOINT simRightFoot
      {
        OFFSET 0 -40.9639 0
        CHANNELS 3 Zrotation Xrotation Yrotation
        End Site
        {
          OFFSET 0.50614 -9.67405 14.6709
        }
      }
    }
  }
  JOINT simLeftUpLeg
  {
    OFFSET 8.44614 -9.41038 0.835684
    CHANNELS 3 Zrotation Xrotation Yrotation
    JOINT simLeftLeg
    {
      OFFSET 0 -40.9639 0
      CHANNELS 3 Zrotation Xrotation Yrotation
      JOINT simLeftFoot
      {
        OFFSET 0 -40.9639 0
        CHANNELS 3 Zrotation Xrotation Yrotation
        End Site
        {
          OFFSET -0.50614 -9.67405 14.6709
        }
      }
    }
  }
}
MOTION
Frames:	19
Frame Time:	0.0333333
-77.4546 83.1175 17.9921 12.6247 -4.29821 -99.8822 -17.9404 4.11796 4.78404 -37.5625 -1.89627 28.4963 17.6931 -14.0104 -86.8959 8.83154 -13.5393 3.57188 -6.13711 -33.9095 2.83875 23.6424 -39.1428 -8.703 -27.7049 -34.5681 93.6031 2.30238 -50.3494 4.41149 -24.062 11.9123 -0.400313 2.92155 22.9806 -0.705636 -3.86161 -25.5274 -13.5345 38.3371 -46.3605 10.6681 -15.7661 39.6716 5.32587 -19.0734 -4.91745 2.3354 
-79.212 85.4462 19.3905 12.1626 -4.26516 -95.9311 -16.9641 6.62225 14.8763 -46.8827 0.281943 27.0617 17.6474 -13.7227 -85.8773 11.2056 -15.2996 4.79214 -18.5135 -21.8678 0.493894 1.64354 -37.4063 -2.86561 -28.0005 -28.5651 81.5886 9.90274 -44.7879 13.5724 -20.7809 12.1727 -1.591 2.78673 22.4084 -0.661703 -3.54289 -26.0446 -12.6954 32.0135 -46.1259 6.74986 -14.2766 36.828 4.4265 -17.2642 -1.95024 2.3217 
-80.4637 87.854 20.8776 11.985 -4.83055 -95.5249 -15.7183 8.97116 24.3236 -59.5499 0.796279 30.1417 17.6816 -13.9343 -86.6267 15.2801 -18.4227 8.85372 -21.0394 -14.2406 -2.66722 -13.5504 -43.1243 8.62014 -27.723 -26.1537 76.9437 29.2251 -24.794 -1.62624 -20.7101 8.60755 -2.02457 2.73821 22.5014 -0.652749 -2.35033 -25.4633 -11.0909 29.0398 -43.6555 9.2576 -12.6724 33.4688 3.54855 -15.2738 2.27814 0.898306 
-81.5244 89.966 22.2518 12.4506 -5.14223 -96.1392 -15.3048 10.7565 31.2865 -73.1879 -5.27244 34.4498 17.7321 -14.2872 -87.8747 16.3844 -19.9744 10.8848 -13.3103 -14.0506 -8.81423 -24.4722 -33.2694 19.2579 -23.5888 -15.0402 55.0026 8.49104 -36.1944 17.4114 -21.713 2.00478 -3.36872 3.07338 25.0148 -0.813051 -1.47719 -24.0575 -9.81031 27.1145 -40.974 13.2314 -10.6882 29.3476 2.5585 -13.4085 5.98503 0.135653 
-82.608 91.675 23.5221 12.2306 -3.85661 -94.7588 -12.1364 12.5085 35.1945 -84.4379 -15.2501 39.7788 17.7049 -14.0905 -87.179 17.9869 -20.7541 11.8964 -5.44281 -18.0775 -18.8137 -24.7653 -27.6139 31.1302 -17.3017 -7.53768 37.0696 -0.300236 -22.9846 3.86416 -21.5625 -3.41693 -5.15024 3.32527 26.867 -0.936668 -0.538174 -21.7523 -8.82936 24.3924 -38.2164 13.7246 -8.30401 24.3512 1.51952 -11.8546 8.61396 -0.308906 
-83.5494 93.0883 24.6663 10.3821 -2.06081 -91.9346 -6.69112 17.1709 38.458 -89.315 -19.0555 43.6104 17.6102 -13.5103 -85.1237 23.4009 -28.9304 18.0425 -7.57456 -26.9869 -33.619 -24.1039 -22.3372 37.3097 -9.42205 -2.41214 19.0699 -8.63455 -13.3236 4.78806 -21.5399 -6.7219 -5.96098 3.21043 26.5526 -0.84417 3.25866 -18.3824 -5.54955 21.259 -35.1586 10.6657 -6.57522 20.3802 0.910843 -10.9978 10.8169 -0.448158 
-84.3905 94.0793 25.3923 8.4797 -0.892247 -88.1825 -0.682196 22.8402 40.9057 -85.5224 -13.8505 44.2678 17.522 -13.0613 -83.5268 23.0822 -33.6739 19.6752 -16.9963 -37.2542 -47.4731 -21.9767 -17.3573 34.5463 -6.1019 -1.20582 12.4331 -6.20492 -18.7694 3.65631 -22.4403 -9.48309 -6.54475 2.57946 23.4437 -0.532596 8.01357 -13.4224 -1.64998 18.3115 -32.7328 8.36218 -5.28362 17.2189 0.556189 -10.05 13.3085 -0.976905 
-85.3808 94.3512 25.5393 6.39795 -0.0880731 -83.232 5.51181 28.259 40.3941 -74.6375 -11.4458 40.7656 17.5005 -12.961 -83.1691 21.235 -31.704 16.0803 -24.7565 -45.3597 -54.0356 -17.7709 -15.9463 28.3102 -5.16548 -0.905499 10.296 -9.01991 -16.0121 4.07705 -24.3353 -11.0653 -8.2751 1.879 19.0778 -0.281958 10.2085 -9.70359 0.313283 16.1216 -30.5285 6.58361 -4.45393 15.02 0.350698 -10.8516 13.4825 -2.37264 
-86.3547 93.7842 25.1539 3.73751 0.271466 -77.1066 12.3553 32.8709 35.1406 -60.6377 -14.3432 35.4643 17.4894 -12.9104 -82.9885 24.5246 -34.2923 19.2326 -25.3012 -52.5742 -51.6295 -13.1891 -15.7452 23.847 -2.80283 -0.371123 5.5464 -15.4807 -8.12209 4.52867 -26.7618 -10.7979 -11.8333 1.21286 13.3868 -0.114612 11.2171 -1.6778 1.20524 14.5027 -29.6162 2.75195 -4.77704 15.9747 0.427703 -10.734 11.6701 -3.80305 
-87.6772 92.595 23.9229 2.28259 -0.792979 -70.8923 16.6197 35.1954 28.7278 -44.1085 -18.0849 31.1609 17.5125 -13.0188 -83.3751 26.9255 -33.6313 19.1961 -20.3642 -59.5174 -48.5824 -6.18788 -11.2777 17.5353 -0.557554 -0.0504404 1.0875 -2.5595 5.80567 7.29864 -30.0703 -10.5917 -16.5727 0.596737 7.52431 -0.0439924 11.3133 10.8566 2.85769 12.9328 -31.188 -0.416818 -6.11404 19.6917 0.799662 -10.515 9.83658 -3.8382 
-89.4252 90.8256 21.8956 0.230313 -2.62766 -64.9428 19.8121 37.6776 22.6228 -27.2722 -20.9988 25.5107 17.5031 -12.9753 -83.2199 26.7834 -33.7814 15.4472 -15.616 -62.6586 -47.1745 4.56689 -15.4081 7.30647 0.478025 0.045826 4.25402e-05 -0.148238 2.92451 4.10551 -32.3664 -9.61686 -19.0898 0.183637 4.13357 -0.0302851 12.885 19.8741 3.70666 12.4214 -32.2825 -1.92978 -8.11949 24.3312 1.52208 -10.1327 7.90465 -4.5533 
-91.181 88.4669 19.2372 -2.24838 -4.29445 -59.2241 22.4861 39.4465 15.1985 -10.1137 -26.3869 19.0271 17.616 -13.544 -85.2431 26.2101 -34.5148 12.6997 -3.77639 -57.8816 -40.2931 10.2395 -21.8038 -5.31876 -2.64044 -0.342054 5.22346 -5.25798 9.01965 2.58296 -34.2165 -11.1842 -18.2387 0.683973 10.8214 0.00986452 14.7995 18.2814 -0.173212 13.3332 -34.0158 -3.49736 -10.9908 30.0784 2.84118 -9.77025 5.89653 -6.47728 
-92.8768 85.8104 16.1147 -4.07405 -5.88295 -55.6659 22.3389 40.0549 7.62542 10.6596 -32.8684 12.7134 17.6901 -13.9887 -86.8193 25.4984 -34.0486 7.62255 8.14667 -43.7234 -35.2403 14.5282 -14.8759 -13.2684 -4.89112 -0.832337 9.73647 1.94696 7.51709 4.93757 -37.1511 -17.7684 -13.583 3.99533 32.5281 -1.10063 15.3073 3.49986 -4.4655 15.1793 -36.2191 -4.2137 -13.6354 35.587 4.30074 -10.8651 4.16697 -7.92048 
-94.3444 84.1014 13.1963 -4.83693 -6.53176 -56.2424 19.4231 40.1631 2.02809 26.987 -38.8221 1.743 17.5897 -13.3984 -84.7261 22.9182 -32.0626 1.83531 12.6046 -26.2245 -34.8317 19.0448 -3.29126 -15.8255 -5.47443 -0.990142 10.9165 7.61871 1.28545 6.80451 -37.6606 -23.4936 -13.0093 6.3991 44.4216 -2.68007 13.693 -2.36358 -3.46268 18.7878 -36.7044 -2.3619 -14.823 37.957 5.01472 -12.7016 3.44495 -9.19771 
-95.3117 83.636 10.7982 -4.07088 -6.28614 -60.3539 14.6535 40.6396 -3.24337 32.9756 -40.6837 -13.0101 17.1828 -11.7329 -78.7541 21.13 -29.8961 -1.75798 11.5215 -17.159 -31.5949 20.2368 -1.37489 -13.0468 -6.13673 -1.18502 12.2628 6.13444 -3.16528 6.58398 -36.2512 -29.3808 -11.4606 7.38045 48.5827 -3.43939 13.1229 -4.00266 -2.3609 22.9955 -35.712 1.69135 -14.4304 37.2048 4.76609 -13.7438 4.56231 -8.14888 
-95.787 84.2431 9.17371 -2.76354 -4.12323 -65.4248 13.3411 40.8338 -11.5352 26.2446 -36.3514 -26.5143 16.3939 -9.63541 -70.9823 24.6233 -27.1758 -1.72689 8.30268 -18.7276 -23.8054 17.201 -8.18251 -4.02496 -7.16408 -1.52126 14.3664 -0.562137 -3.92441 5.45382 -33.074 -34.9402 -12.0172 7.43775 48.8258 -3.5465 10.1928 -1.95613 -0.405164 27.5071 -34.6564 4.29421 -13.3349 35.0053 4.08956 -15.0832 6.20058 -4.3417 
-96.586 85.0807 8.31526 -1.89831 -2.37604 -71.341 13.2103 40.9913 -19.2027 9.57236 -28.1535 -35.0468 15.5949 -8.09717 -64.9853 28.2656 -26.0845 -0.225193 7.82791 -24.4299 -15.2265 14.8726 -14.3568 9.05439 -7.66066 -1.69865 15.3891 -5.05637 -3.08798 1.7371 -30.1289 -38.0066 -14.1828 6.99409 47.0748 -3.24184 8.44671 0.944531 4.57428 31.1625 -32.9422 4.86663 -13.7903 35.9591 4.32962 -16.3812 3.81395 0.308752 
-98.0164 85.5143 7.80803 -3.01603 -3.05917 -78.558 9.39373 41.8751 -22.1422 -8.70492 -16.3328 -35.7005 15.1822 -7.42995 -62.2717 28.1127 -27.1521 1.78674 11.312 -27.512 -8.70537 14.7906 -15.6723 20.6697 -7.27017 -1.57751 14.7 -5.98394 -6.80691 -0.833971 -28.1076 -38.9691 -14.7184 6.95192 46.9072 -3.24341 6.8091 2.63539 10.6868 32.8697 -28.9371 4.32056 -17.8069 43.2202 6.94101 -17.6891 -2.53275 -2.3989 
-100.2 85.4332 7.45829 -5.86985 -3.42353 -84.9095 5.14957 40.8306 -21.5586 -24.5449 1.03778 -29.2519 14.5221 -6.49032 -58.2992 26.9873 -26.1464 4.30193 13.0819 -24.535 -6.5941 14.9666 -10.7329 25.937 -8.49377 -2.01977 17.1206 -9.90087 -6.57756 2.61426 -26.1314 -38.4273 -15.7149 7.58858 49.4094 -3.79821 3.594 1.90659 14.748 34.1964 -23.4882 3.63215 -23.6957 51.153 11.3514 -18.5085 -7.24992 -4.68865 
